<?xml version="1.0" encoding="utf-8"?>
<!-- Generator: Adobe Illustrator 26.2.1, SVG Export Plug-In . SVG Version: 6.00 Build 0)  -->
<svg version="1.1" id="Layer_1" xmlns="http://www.w3.org/2000/svg" xmlns:xlink="http://www.w3.org/1999/xlink" x="0px" y="0px"
	 viewBox="0 0 902.1 182.1" style="enable-background:new 0 0 902.1 182.1;" xml:space="preserve">
<style type="text/css">
	.st0{fill:#652280;stroke:#652280;stroke-width:13;stroke-linecap:round;stroke-linejoin:round;stroke-miterlimit:10;}
	.st1{fill:#FFFFFF;}
	.st2{fill:#652280;}
	.st3{fill:#EAD934;}
	.st4{fill:#F9DA32;}
	.st5{fill:#EA6C32;}
	.st6{opacity:0.8;fill:#652280;}
	.st7{opacity:0.6;fill:#652280;}
	.st8{opacity:0.4;fill:#652280;}
	.st9{opacity:0.2;fill:#652280;}
	.st10{clip-path:url(#SVGID_00000118389256575834100920000003313095443621632416_);fill:#F9DA32;}
	.st11{clip-path:url(#SVGID_00000067212871621169663410000000738775973473480113_);fill:#5E1E74;}
	.st12{fill:#5E1E74;}
	.st13{fill:none;stroke:#F9DA32;stroke-width:2;stroke-miterlimit:10;}
	.st14{fill:none;stroke:#58595B;stroke-miterlimit:10;}
	.st15{fill:#58595B;}
	.st16{opacity:0.88;fill:#FFFFFF;}
	.st17{fill:#652280;stroke:#FFFFFF;stroke-width:4;stroke-miterlimit:10;}
	.st18{fill:none;}
	.st19{opacity:0.5;}
	.st20{fill:#722D8D;}
	.st21{opacity:0.5;fill:#722D8D;}
	.st22{fill:#F0E91F;}
	.st23{clip-path:url(#SVGID_00000047019534912030900750000006501423337391994550_);}
	.st24{clip-path:url(#SVGID_00000028291766122906442560000012250888662249896594_);}
</style>
<g>
	<g>
		<g>
			<path class="st2" d="M18.8,72.1c0-15.1,1.5-30.4,1.9-42.3h28.2c-3.6,4.8-5.5,15.5-5.5,27.8c0,26.2,8.8,59.8,28.9,59.8
				c8.1,0,11-3.9,11-9.8c0-9.5-23.3-42-23.3-62.4c0-10.2,9.3-17.4,22.9-17.4c7.2,0,14.9,4.4,20.4,14.4l-0.8,2.8
				c-13.1,0.3-16.7,6.2-16.7,14.6c0,10.1,5,23.9,5,36.9c0,15.6-6.1,32.7-33.3,32.7C24.8,129.1,18.8,101.1,18.8,72.1z"/>
			<path class="st2" d="M57.5,144.6c-26.2,0-39.1-14.1-45.3-25.9c-6-11.5-8.8-26.3-8.8-46.6c0-9.9,0.6-19.9,1.2-28.8
				c0.3-5.1,0.6-9.8,0.8-14c0.3-8.3,7.1-14.9,15.5-14.9h28.2c4,0,7.8,1.5,10.6,4.2c6.3-4,14.4-6.2,23.4-6.2c13.7,0,26.1,8.1,34,22.3
				c2,3.6,2.5,8,1.3,12l-0.8,2.8c-1.9,6.4-7.8,10.9-14.5,11c-0.6,0-1.1,0-1.5,0.1c0.2,3.2,1,7.6,1.9,12.2c1.4,7.2,3,15.3,3,23.7
				C106.2,126.6,88,144.6,57.5,144.6z M101.4,58.2L101.4,58.2L101.4,58.2z"/>
		</g>
		<g>
			<path class="st2" d="M133.6,57.4c-4.6,6.1-6.2,11.5-6.2,17c0,4.3,1,8.6,2.2,13.4c8.7-22.8,21-31.6,31.5-31.6
				c11.5,0,20.7,8.3,20.7,22.2c0,11.2-11,25.7-11,31.9c0,2.3,1.7,3.9,6.6,3.9c1.7,0,4.8-1.2,8.7-3.7l1.7,2.8
				c-3.9,5.2-16.2,15.3-27.6,15.3c-13.1,0-17.9-6.2-17.9-13.8c0-13.7,14.6-34,14.6-44.6c0-2.5-1-3.9-3.4-3.9
				c-6.1,0-20.2,18.8-20.2,31.9c0,1.4,0.1,2.8,0.4,4c1.7,6.8,3,14.8,3,24.3h-31.9v-69H133.6z"/>
			<path class="st2" d="M160.1,144c-5.9,0-11.8-1.1-17-3.5c-2,0.9-4.2,1.4-6.5,1.4h-31.9c-8.5,0-15.5-6.9-15.5-15.5v-69
				c0-8.5,6.9-15.5,15.5-15.5h28.9c3.6,0,7.1,1.3,9.8,3.5c7.3-4,13.8-4.7,17.7-4.7c21,0,36.2,15.9,36.2,37.7
				c0,6.4-1.9,12.6-4.2,18.2c2.6,1.3,4.8,3.3,6.3,5.9l1.7,2.8c3.2,5.4,2.9,12.1-0.8,17.1C194,130.8,177.7,144,160.1,144z"/>
		</g>
		<g>
			<path class="st2" d="M223.5,57.4c-4.6,6.1-6.1,11.5-6.1,17c0,13.3,9.2,26.9,9.2,52.1h-31.9v-69H223.5z M226.8,34.5
				c0,6.8-7.5,15.2-19.3,15.2c-8.3,0-11.9-3.6-11.9-8.1c0-6.8,8.1-15.3,20.4-15.3C223.5,26.2,226.8,30,226.8,34.5z"/>
			<path class="st2" d="M226.7,142h-31.9c-8.5,0-15.5-6.9-15.5-15.5v-69c0-2.9,0.8-5.7,2.2-8c-0.9-2.6-1.4-5.2-1.4-7.9
				c0-14.9,14.4-30.8,35.9-30.8c17.2,0,26.3,12,26.3,23.8c0,6-1.9,11.3-5.1,15.8c0,0.1,0.1,0.1,0.1,0.2c2.6,5.2,2.1,11.5-1.5,16.2
				c-2.7,3.7-3,5.9-3,7.7c0,3.4,1.4,8.1,2.9,13.5c2.8,9.7,6.3,21.8,6.3,38.6C242.1,135,235.2,142,226.7,142z M216.5,41.7L216.5,41.7
				L216.5,41.7z"/>
		</g>
		<g>
			<path class="st2" d="M294.6,65.4c-0.1-3.7-0.8-6.5-1.9-8h23.1V161h-31.9c0-15.6,3.6-37.6,6.6-57.2c-6.5,14.8-17.7,23.9-28.6,23.9
				c-17.1,0-26.7-16.8-26.7-34.2c0-18.8,11-38.2,35.3-38.2C284.8,55.2,291.7,58.5,294.6,65.4z M266.8,100.7c0,5.8,1.8,9.9,5.4,9.9
				c12.6,0,20.2-23.6,20.2-35.6c0-4.1-0.8-6.8-2.8-6.8C275.1,68.2,266.8,88.1,266.8,100.7z"/>
			<path class="st2" d="M315.7,176.5h-31.9c-8.5,0-15.5-6.9-15.5-15.5c0-5.7,0.4-12,1.1-18.6c-2.5,0.5-5,0.8-7.6,0.8
				c-24,0-42.1-21.4-42.1-49.7c0-26.7,17.5-53.7,50.8-53.7c3.7,0,11.3,0,19,2.5c1-0.2,2-0.3,3.1-0.3h23.1c8.5,0,15.5,6.9,15.5,15.5
				V161C331.2,169.5,324.3,176.5,315.7,176.5z M300.2,145.5l0-0.1C300.2,145.4,300.2,145.5,300.2,145.5z M257.6,75.2
				c-6.4,5.9-6.9,15.6-6.9,18.3c0,1.9,0.2,4.1,0.7,6.3C251.5,92,253.6,83.1,257.6,75.2z"/>
		</g>
		<g>
			<path class="st2" d="M406,112.4c0,3.7,1,5,2.5,5c2.5,0,6.2-4.3,6.2-4.3l2.3,3.9c-1.5,2.1-13.4,11.6-24.3,11.6
				c-8.3,0-15.6-2.8-15.6-16.3c0-2.8,0.3-5.8,0.8-9.4h-0.1c-8.3,17.8-19.2,24.9-28.6,24.9c-11.5,0-20.7-8.3-20.7-22.2
				c0-11,11-25.7,11-31.8c0-2.5-1.8-3.9-6.6-3.9c-1.7,0-5,1.2-8.7,3.7l-1.7-2.8c3.9-5.4,16.2-15.5,27.6-15.5c13.1,0,18,6.4,18,13.9
				c0,13.7-14.6,34-14.6,44.6c0,2.5,1,3.9,3.4,3.9c5.9,0,20.6-19.3,20.6-32.6c0-1.4-0.1-2.6-0.6-3.9c-1.4-4.7-2.9-11.6-2.9-23.9H406
				V112.4z"/>
			<path class="st2" d="M392.8,144c-9.3,0-16.8-2.7-22.2-7.8c-8.8,5.9-16.9,6.9-21.3,6.9c-21,0-36.2-15.9-36.2-37.7
				c0-6.3,1.9-12.5,4.2-18.1c-2.6-1.3-4.8-3.3-6.3-5.9l-1.7-2.8c-3.2-5.3-2.9-12,0.7-17c6.5-9.1,23.3-21.9,40.2-21.9
				c6.9,0,12.6,1.3,17.3,3.5c2-0.9,4.2-1.5,6.6-1.5H406c8.5,0,15.5,6.9,15.5,15.5v41.7c2.6,1.3,4.9,3.3,6.5,5.9l2.3,3.9
				c3.2,5.4,3,12.1-0.8,17.2C425.7,131.4,409.6,144,392.8,144z M421.5,112.5L421.5,112.5L421.5,112.5z M335.5,85L335.5,85L335.5,85z
				"/>
		</g>
		<g>
			<path class="st2" d="M472.6,110.7c6.6,0,14.4-3.2,17.4-7.5l2.2,2.9c-0.1,0-9.4,22.9-30.2,22.9c-26.2,0-39.4-18.4-39.4-36.9
				c0-18.4,13.3-36.9,39.6-36.9c15.6,0,26,9.7,26,19.7c0,17.8-30.1,13.4-30.1,25.5c0,1.2,0.3,2.8,1.1,4.4
				C463,108.5,467.5,110.7,472.6,110.7z M446.9,76.2c0,7.9,2.9,17,7.9,23.9c-3-12.4,14.1-20,14.1-29.7c0-5-1.9-10.1-9.8-10.1
				C450.7,60.3,446.9,67.4,446.9,76.2z"/>
			<path class="st2" d="M462,144.6c-36,0-54.8-26.3-54.8-52.3c0-26,18.9-52.4,55.1-52.4c23.2,0,41.4,15.5,41.4,35.2
				c0,6.5-1.8,11.6-4.6,15.6c1.2,0.9,2.3,1.9,3.2,3.2l2.2,2.9c3.6,4.7,4.2,11,1.6,16.3c0,0.1-0.1,0.2-0.2,0.3
				C496.5,133,480.1,144.6,462,144.6z"/>
		</g>
	</g>
	<g>
		<g>
			<path class="st2" d="M563.9,29.8c-5.2,6.9-6.6,16.3-6.1,26.9c3-18.4,15.9-28.2,29.4-28.2c14.5,0,23.1,9.4,23.1,21
				c0,14.8-14.1,32.9-48.1,38.9c2.3,12.8,4.7,26,4.7,38H535c4.1-7.7,5.5-16.8,5.5-26.8c0-20.2-5.5-44.2-5.5-69.9H563.9z M583.9,53.8
				c0-5-2.2-8.6-7.5-8.6c-8.4,0-18.6,15.1-16.3,32c0.4,2.1,0.8,4.1,1.1,6.2C573.4,82.2,583.9,64.6,583.9,53.8z"/>
			<path class="st2" d="M566.9,142H535c-5.4,0-10.5-2.9-13.3-7.5c-2.8-4.7-2.9-10.5-0.4-15.3c2.5-4.6,3.7-11,3.7-19.5
				c0-8.6-1.2-18.5-2.4-28.9c-1.5-12.4-3.1-26.4-3.1-40.9c0-8.5,6.9-15.5,15.5-15.5h28.9c2.6,0,5,0.6,7.2,1.8c5-2,10.4-3,16.1-3
				c22.3,0,38.5,15.3,38.5,36.5c0,17.6-12.3,39.9-45.8,50.5c1.4,8.7,2.4,17.7,2.4,26.4C582.4,135,575.4,142,566.9,142z"/>
		</g>
		<g>
			<path class="st2" d="M614.4,65c6.6-6.1,18.2-9.7,30.1-9.7c20.6,0,42.4,10.8,42.4,38.8c0,10.8,0,7.5,0,18.2c0,3.7,1.1,5,2.5,5
				c2.6,0,6.4-4.3,6.4-4.3l2.3,3.9c-1.5,2.1-13.4,11.6-24.4,11.6c-7.5,0-14.9-3.4-13.4-17.4c-6.8,8.8-17.3,16.7-27.9,16.7
				c-11.6,0-17.8-9.7-17.8-20.2c0-12.7,9-26.5,28.9-26.5c11.5,0,22.4,4.6,23.9,11.3c3.9-2.9,5.7-5.7,5.7-8.3
				c0-5.8-8.7-10.1-20.4-10.1c-10.9,0-24.4,3.6-36.6,13.1L614.4,65z M644.9,116.3c5.5,0,16.2-10.6,16.2-21.8c0-3.2-1.4-4.6-3.5-4.6
				c-5.5,0-15.9,10.4-15.9,22.2C641.7,115,643,116.3,644.9,116.3z"/>
			<path class="st2" d="M673.6,144c-9.5,0-15.8-3.4-19.8-6.8c-7,4-14.3,6.1-21.5,6.1c-19,0-33.3-15.3-33.3-35.6
				c0-4.9,0.9-9.9,2.5-14.6c-0.6-1.5-1-3.1-1.1-4.8L599,66.1c-0.3-4.7,1.5-9.3,5-12.5c9.4-8.6,24.5-13.7,40.6-13.7
				c14.6,0,28.3,4.3,38.4,12.1c8.9,6.9,19.5,19.8,19.5,42.2v4.9c2.7,1.3,5,3.3,6.6,5.9l2.3,3.9c3.3,5.4,3,12.1-0.8,17.2
				C706.7,131.4,690.6,144,673.6,144z"/>
		</g>
		<g>
			<path class="st2" d="M718.8,126.5l-26.4-69h32c-1.7,1.7-2.3,3.9-2.3,6.5c0,12,14.9,32.6,14.9,47.8c0,1.7-0.3,3.3-0.7,4.8
				c4-7.2,6.5-17.1,6.5-26.4c0-4.7-0.7-9.3-2.2-13.3l-7.3-19.5h32c-1.7,1.7-2.4,3.9-2.4,6.5c0,1.5,0.1,3.2,0.6,5
				c2.9,12.3,14.2,29.5,14.2,42.8c0,2.8-0.4,5.4-1.7,7.7c5.9-7.7,10.5-19.9,10.5-29.7c0-9.7-4.4-17-16.4-15.5l-0.8-2.8
				c7.3-12.3,17.7-18.6,25.7-18.6c6.9,0,12.1,4.8,12.1,14.8c0,12-7.6,31.5-28.7,58.8h-18.8l-7.3-19.2c-3.7,5.7-9,11.7-14.8,19.2
				H718.8z"/>
			<path class="st2" d="M778.5,142h-18.8c-4.2,0-8.2-1.7-11-4.6c-2.9,2.9-6.9,4.6-11,4.6h-18.8c-6.4,0-12.2-4-14.5-10L678,63
				c-1.8-4.8-1.2-10.1,1.7-14.3c2.9-4.2,7.7-6.7,12.7-6.7h32c1.5,0,3,0.2,4.4,0.6c1.4-0.4,2.9-0.6,4.4-0.6h32c3,0,5.9,0.9,8.4,2.5
				c6.7-4.5,14.1-7,21.3-7c16.3,0,27.6,12.4,27.6,30.3c0,17.9-10.7,40.9-32,68.3C787.8,139.7,783.3,142,778.5,142z"/>
		</g>
		<g>
			<path class="st2" d="M849.2,54.5c16.2,0,32.3,6.1,32.3,16c0,3.9-2.5,8.3-8.4,13.1c6.1,3.5,10.2,8.3,10.2,15.3
				c0,19.3-15.7,27.6-33.4,27.6c-12.4,0-26-4-35.8-11.3l5.2-23.5c8.8,9.9,35.8,20.6,49.3,20.6c4.8,0,7.9-1.4,7.9-4.6
				c0-10.4-60.3-9.8-60.3-29.7C816.2,61.3,832.7,54.5,849.2,54.5z M868,80.4c0-8.6-22.1-15.1-32.9-15.1c-3.6,0-5.9,0.7-5.9,2.2
				c0,6.1,22.8,6.9,38.7,13.5C868,80.8,868,80.5,868,80.4z"/>
			<path class="st2" d="M849.9,142.1c-16.1,0-32.9-5.4-45-14.4c-4.9-3.6-7.2-9.8-5.8-15.8l4.8-21.5c-2-3.5-3.1-7.6-3.1-12.3
				c0-23.4,19.5-39.1,48.5-39.1c28.1,0,47.8,13,47.8,31.5c0,4.1-1,8.1-2.9,11.9c3.9,6.2,4.7,12.4,4.7,16.5
				C898.8,124.8,879.1,142.1,849.9,142.1z M852.5,80.4C852.5,80.4,852.5,80.4,852.5,80.4l5.5,0v0H852.5L852.5,80.4z"/>
		</g>
	</g>
	<g>
		<g>
			<g>
				<path class="st3" d="M18.8,72.1c0-15.1,1.5-30.4,1.9-42.3h28.2c-3.6,4.8-5.5,15.5-5.5,27.8c0,26.2,8.8,59.8,28.9,59.8
					c8.1,0,11-3.9,11-9.8c0-9.5-23.3-42-23.3-62.4c0-10.2,9.3-17.4,22.9-17.4c7.2,0,14.9,4.4,20.4,14.4l-0.8,2.8
					c-13.1,0.3-16.7,6.2-16.7,14.6c0,10.1,5,23.9,5,36.9c0,15.6-6.1,32.7-33.3,32.7C24.7,129.1,18.8,101.1,18.8,72.1z"/>
			</g>
		</g>
		<g>
			<g>
				<path class="st3" d="M133.6,57.4c-4.6,6.1-6.2,11.5-6.2,17c0,4.3,1,8.6,2.2,13.4c8.7-22.8,21-31.6,31.5-31.6
					c11.5,0,20.7,8.3,20.7,22.2c0,11.2-11,25.7-11,31.9c0,2.3,1.7,3.9,6.6,3.9c1.7,0,4.8-1.2,8.7-3.7l1.7,2.8
					c-3.9,5.2-16.2,15.3-27.6,15.3c-13.1,0-17.9-6.2-17.9-13.8c0-13.7,14.6-34,14.6-44.6c0-2.5-1-3.9-3.4-3.9
					c-6.1,0-20.2,18.8-20.2,31.9c0,1.4,0.1,2.8,0.4,4c1.7,6.8,3,14.8,3,24.3h-31.9v-69H133.6z"/>
			</g>
		</g>
		<g>
			<g>
				<path class="st3" d="M223.5,57.4c-4.6,6.1-6.1,11.5-6.1,17c0,13.3,9.3,26.9,9.3,52.1h-31.9v-69H223.5z M226.8,34.5
					c0,6.8-7.5,15.2-19.3,15.2c-8.3,0-11.9-3.6-11.9-8.1c0-6.8,8.1-15.3,20.4-15.3C223.5,26.2,226.8,30,226.8,34.5z"/>
			</g>
		</g>
		<g>
			<g>
				<path class="st3" d="M294.6,65.4c-0.1-3.7-0.8-6.5-1.9-8h23.1V161h-31.9c0-15.6,3.6-37.6,6.6-57.2
					c-6.5,14.8-17.7,23.9-28.6,23.9c-17.1,0-26.7-16.8-26.7-34.2c0-18.8,11-38.2,35.3-38.2C284.8,55.2,291.7,58.5,294.6,65.4z
					 M266.8,100.7c0,5.8,1.8,9.9,5.4,9.9c12.6,0,20.2-23.6,20.2-35.6c0-4.1-0.8-6.8-2.8-6.8C275.1,68.2,266.8,88.1,266.8,100.7z"/>
			</g>
		</g>
		<g>
			<g>
				<path class="st3" d="M406,112.4c0,3.7,1,5,2.5,5c2.5,0,6.2-4.3,6.2-4.3l2.3,3.9c-1.5,2.1-13.4,11.6-24.3,11.6
					c-8.3,0-15.6-2.8-15.6-16.3c0-2.8,0.3-5.8,0.8-9.4h-0.1c-8.3,17.8-19.2,24.9-28.6,24.9c-11.5,0-20.7-8.3-20.7-22.2
					c0-11,11-25.7,11-31.8c0-2.5-1.8-3.9-6.6-3.9c-1.7,0-5,1.2-8.7,3.7l-1.7-2.8c3.9-5.4,16.2-15.5,27.6-15.5c13.1,0,18,6.4,18,13.9
					c0,13.7-14.6,34-14.6,44.6c0,2.5,1,3.9,3.4,3.9c5.9,0,20.6-19.3,20.6-32.6c0-1.4-0.1-2.6-0.6-3.9c-1.4-4.7-2.9-11.6-2.9-23.9
					H406V112.4z"/>
			</g>
		</g>
		<g>
			<g>
				<path class="st3" d="M472.6,110.7c6.6,0,14.4-3.2,17.4-7.5l2.2,2.9c-0.1,0-9.4,22.9-30.2,22.9c-26.2,0-39.4-18.4-39.4-36.9
					c0-18.4,13.3-36.9,39.6-36.9c15.6,0,26,9.7,26,19.7c0,17.8-30.1,13.4-30.1,25.5c0,1.2,0.3,2.8,1.1,4.4
					C462.9,108.5,467.5,110.7,472.6,110.7z M446.9,76.2c0,7.9,2.9,17,7.9,23.9c-3-12.4,14.1-20,14.1-29.7c0-5-1.9-10.1-9.8-10.1
					C450.7,60.3,446.9,67.4,446.9,76.2z"/>
			</g>
		</g>
	</g>
	<g>
		<g>
			<g>
				<path class="st3" d="M563.8,29.8c-5.2,6.9-6.6,16.3-6.1,26.9c3-18.4,15.9-28.2,29.4-28.2c14.5,0,23.1,9.4,23.1,21
					c0,14.8-14.1,32.9-48.1,38.9c2.3,12.8,4.7,26,4.7,38H535c4.1-7.7,5.5-16.8,5.5-26.8c0-20.2-5.5-44.2-5.5-69.9H563.8z
					 M583.9,53.8c0-5-2.2-8.6-7.5-8.6c-8.4,0-18.6,15.1-16.3,32c0.4,2.1,0.8,4.1,1.1,6.2C573.4,82.2,583.9,64.6,583.9,53.8z"/>
			</g>
		</g>
		<g>
			<g>
				<path class="st3" d="M614.4,65c6.6-6.1,18.2-9.7,30.1-9.7c20.6,0,42.4,10.8,42.4,38.8c0,10.8,0,7.5,0,18.2c0,3.7,1.1,5,2.5,5
					c2.6,0,6.4-4.3,6.4-4.3l2.3,3.9c-1.5,2.1-13.4,11.6-24.4,11.6c-7.5,0-14.9-3.4-13.4-17.4c-6.8,8.8-17.3,16.7-27.9,16.7
					c-11.6,0-17.8-9.7-17.8-20.2c0-12.7,9-26.5,28.9-26.5c11.5,0,22.4,4.6,23.9,11.3c3.9-2.9,5.7-5.7,5.7-8.3
					c0-5.8-8.7-10.1-20.4-10.1c-10.9,0-24.4,3.6-36.6,13.1L614.4,65z M644.9,116.3c5.5,0,16.2-10.6,16.2-21.8c0-3.2-1.4-4.6-3.5-4.6
					c-5.5,0-15.9,10.4-15.9,22.2C641.7,115,643,116.3,644.9,116.3z"/>
			</g>
		</g>
		<g>
			<g>
				<path class="st3" d="M718.8,126.5l-26.4-69h32c-1.7,1.7-2.3,3.9-2.3,6.5c0,12,14.9,32.6,14.9,47.8c0,1.7-0.3,3.3-0.7,4.8
					c4-7.2,6.5-17.1,6.5-26.4c0-4.7-0.7-9.3-2.2-13.3l-7.3-19.5h32c-1.7,1.7-2.4,3.9-2.4,6.5c0,1.5,0.1,3.2,0.6,5
					c2.9,12.3,14.2,29.5,14.2,42.8c0,2.8-0.4,5.4-1.7,7.7c5.9-7.7,10.5-19.9,10.5-29.7c0-9.7-4.4-17-16.4-15.5l-0.8-2.8
					c7.3-12.3,17.7-18.6,25.7-18.6c6.9,0,12.1,4.8,12.1,14.8c0,12-7.6,31.5-28.7,58.8h-18.8l-7.3-19.2c-3.7,5.7-9,11.7-14.8,19.2
					H718.8z"/>
			</g>
		</g>
		<g>
			<g>
				<path class="st3" d="M849.2,54.5c16.2,0,32.3,6.1,32.3,16c0,3.9-2.5,8.3-8.4,13.1c6.1,3.5,10.2,8.3,10.2,15.3
					c0,19.3-15.7,27.6-33.4,27.6c-12.4,0-26-4-35.8-11.3l5.2-23.5c8.8,9.9,35.8,20.6,49.3,20.6c4.8,0,7.9-1.4,7.9-4.6
					c0-10.4-60.3-9.8-60.3-29.7C816.2,61.3,832.7,54.5,849.2,54.5z M868,80.4c0-8.6-22.1-15.1-32.9-15.1c-3.6,0-5.9,0.7-5.9,2.2
					c0,6.1,22.8,6.9,38.7,13.5C868,80.8,868,80.5,868,80.4z"/>
			</g>
		</g>
	</g>
</g>
</svg>
