<svg width="69" height="15" viewBox="0 0 69 15" fill="none" xmlns="http://www.w3.org/2000/svg">
<path d="M2.38365 8.78926C15.854 7.05104 29.3469 5.43151 42.8625 3.93066C46.6746 3.50341 50.4867 3.08711 54.2988 2.68178C54.7779 2.58321 55.1847 2.3517 55.4313 2.03714C55.6779 1.72259 55.7447 1.35017 55.6172 1.00016C55.4733 0.654472 55.1523 0.36219 54.7204 0.183773C54.2885 0.0053562 53.7788 -0.0455467 53.2967 0.0415915C39.7661 1.48402 26.2581 3.03964 12.7727 4.70847C8.97571 5.17954 5.1787 5.65974 1.38169 6.14907C0.902507 6.24764 0.495761 6.47915 0.249144 6.7937C0.00252696 7.10826 -0.0642128 7.48068 0.0632831 7.83068C0.205486 8.17714 0.526193 8.47028 0.95856 8.64889C1.39093 8.82751 1.9015 8.8778 2.38365 8.78926Z" fill="#EAD934"/>
<path d="M19.2981 14.3543C32.0076 13.8832 44.3328 11.4457 56.3492 8.54805C59.7921 7.72094 63.22 6.85549 66.6478 5.99003C67.1219 5.88435 67.5221 5.65046 67.766 5.33657C68.0099 5.02268 68.0789 4.65271 67.9587 4.30295C67.8232 3.95476 67.5045 3.65943 67.0715 3.48101C66.6385 3.30259 66.1262 3.25546 65.6458 3.34985C53.8856 6.31869 42.0426 9.30943 29.7249 10.7939C26.2733 11.21 22.7922 11.4844 19.2981 11.6155C16.8873 11.7031 16.8723 14.4474 19.2981 14.3543Z" fill="#EAD934"/>
</svg>
