<svg width="49" height="38" viewBox="0 0 49 38" fill="none" xmlns="http://www.w3.org/2000/svg">
<path d="M41.5499 22.7501L45.7299 8.54004H11.7999L15.97 22.7501H41.5499ZM36.0699 26.9601C37.259 26.9626 38.4103 27.3773 39.3279 28.1335C40.2455 28.8897 40.8725 29.9407 41.1022 31.1073C41.3318 32.2739 41.1499 33.4841 40.5874 34.5316C40.0249 35.5792 39.1167 36.3994 38.0173 36.8524C36.918 37.3054 35.6956 37.3632 34.5583 37.0161C33.4211 36.669 32.4395 35.9383 31.7805 34.9486C31.1216 33.9589 30.8262 32.7713 30.9446 31.5881C31.063 30.405 31.5879 29.2996 32.4299 28.4601C33.3881 27.5032 34.6858 26.964 36.0399 26.9601H36.0699ZM37.95 30.2201C37.5769 29.8458 37.1012 29.5908 36.583 29.4871C36.0648 29.3834 35.5276 29.4357 35.0392 29.6376C34.5508 29.8394 34.1332 30.1816 33.8395 30.6208C33.5457 31.0601 33.3889 31.5767 33.3889 32.1051C33.3889 32.6335 33.5457 33.1501 33.8395 33.5894C34.1332 34.0286 34.5508 34.3708 35.0392 34.5726C35.5276 34.7745 36.0648 34.8268 36.583 34.7231C37.1012 34.6194 37.5769 34.3644 37.95 33.9901C38.4489 33.4896 38.729 32.8118 38.729 32.1051C38.729 31.3984 38.4489 30.7206 37.95 30.2201ZM21.45 26.9601C22.639 26.9626 23.7903 27.3773 24.7079 28.1335C25.6255 28.8897 26.2525 29.9407 26.4822 31.1073C26.7118 32.2739 26.5299 33.4841 25.9674 34.5316C25.4049 35.5792 24.4967 36.3994 23.3973 36.8524C22.298 37.3054 21.0756 37.3632 19.9384 37.0161C18.8011 36.669 17.8195 35.9383 17.1605 34.9486C16.5016 33.9589 16.2062 32.7713 16.3246 31.5881C16.443 30.405 16.9679 29.2996 17.8099 28.4601C18.288 27.9827 18.8557 27.6045 19.4803 27.347C20.105 27.0896 20.7743 26.9581 21.45 26.9601ZM23.34 30.2201C22.8395 29.7212 22.1616 29.441 21.455 29.441C20.7483 29.441 20.0704 29.7212 19.5699 30.2201C19.071 30.7206 18.7909 31.3984 18.7909 32.1051C18.7909 32.8118 19.071 33.4896 19.5699 33.9901C20.0786 34.4447 20.742 34.6872 21.424 34.6681C22.1059 34.6489 22.7546 34.3695 23.2369 33.8871C23.7193 33.4047 23.9988 32.756 24.0179 32.0741C24.0371 31.3922 23.7945 30.7288 23.34 30.2201ZM8.92993 7.6001L7.43994 2.53015H1.23987C0.928932 2.50226 0.639732 2.35894 0.429077 2.12854C0.218422 1.89814 0.101562 1.59734 0.101562 1.28516C0.101562 0.972971 0.218422 0.67205 0.429077 0.44165C0.639732 0.211251 0.928932 0.0679339 1.23987 0.0400391H8.35986C8.62774 0.0399484 8.88851 0.126675 9.10303 0.287109C9.31754 0.447544 9.47432 0.673074 9.54993 0.930054L11.0699 6.08008H47.3799C47.4957 6.06068 47.614 6.06068 47.7299 6.08008C48.044 6.17509 48.3083 6.38985 48.4655 6.67798C48.6226 6.96611 48.6601 7.30455 48.5699 7.62012L43.6899 24.2201C43.6363 24.5016 43.4861 24.7557 43.2651 24.9382C43.0442 25.1208 42.7665 25.2205 42.4799 25.2201H15.0399C14.7724 25.2186 14.5125 25.1313 14.2983 24.9711C14.0841 24.8109 13.927 24.5862 13.85 24.3301L8.97986 7.72009C8.97411 7.66357 8.97411 7.60657 8.97986 7.55005L8.92993 7.6001Z" fill="#231F20"/>
</svg>
