<svg width="48" height="39" viewBox="0 0 48 39" fill="none" xmlns="http://www.w3.org/2000/svg">
<g clip-path="url(#clip0_2067_19)">
<path d="M32.4002 29.7301L41.9202 30.51L44.6502 30.7401C44.8589 30.7375 45.0583 30.6535 45.2059 30.5059C45.3535 30.3583 45.4376 30.1588 45.4402 29.9501C45.4327 29.7429 45.3471 29.5462 45.2006 29.3997C45.054 29.2531 44.8574 29.1675 44.6502 29.16L35.1302 28.39L32.4002 28.16C32.2897 28.1475 32.1778 28.1585 32.0718 28.1923C31.9658 28.226 31.8681 28.2819 31.7852 28.356C31.7022 28.4301 31.6358 28.5208 31.5904 28.6223C31.545 28.7238 31.5215 28.8338 31.5215 28.9451C31.5215 29.0563 31.545 29.1663 31.5904 29.2678C31.6358 29.3693 31.7022 29.4601 31.7852 29.5342C31.8681 29.6083 31.9658 29.6641 32.0718 29.6979C32.1778 29.7316 32.2897 29.7426 32.4002 29.7301Z" fill="#231F20"/>
<path d="M31.6298 26.9801C35.5298 26.7468 39.4231 26.4434 43.3098 26.0701L46.5999 25.7301C46.8069 25.7276 47.0048 25.6449 47.1522 25.4994C47.2995 25.354 47.3847 25.1571 47.3898 24.9501C47.3898 24.5601 47.0399 24.1101 46.5999 24.1601C42.7199 24.5801 38.8299 24.9134 34.9299 25.1601L31.6298 25.3802C31.4228 25.3827 31.2248 25.4653 31.0775 25.6108C30.9302 25.7562 30.845 25.9531 30.8398 26.1601C30.8424 26.3688 30.9265 26.5683 31.0741 26.7159C31.2217 26.8635 31.4211 26.9475 31.6298 26.9501V26.9801Z" fill="#231F20"/>
<path d="M14.9806 25.1599L5.46057 24.3899L2.73059 24.1599C2.53766 24.1817 2.35951 24.2739 2.23016 24.4187C2.10082 24.5635 2.0293 24.7508 2.0293 24.9449C2.0293 25.1391 2.10082 25.3264 2.23016 25.4712C2.35951 25.616 2.53766 25.7082 2.73059 25.73L12.2505 26.5099L14.9806 26.74C15.1901 26.74 15.391 26.6567 15.5392 26.5085C15.6873 26.3604 15.7706 26.1595 15.7706 25.95C15.7655 25.742 15.6806 25.544 15.5336 25.397C15.3865 25.2499 15.1885 25.165 14.9806 25.1599Z" fill="#231F20"/>
<path d="M15.7602 27.9199C11.8602 28.1533 7.96687 28.4566 4.0802 28.83L0.780212 29.1599C0.570691 29.1599 0.369772 29.2432 0.221619 29.3914C0.0734649 29.5395 -0.00976562 29.7404 -0.00976562 29.95C-0.00976562 30.1595 0.0734649 30.3604 0.221619 30.5085C0.369772 30.6567 0.570691 30.74 0.780212 30.74C4.66688 30.32 8.56021 29.9867 12.4602 29.74L15.7602 29.5299C15.9531 29.5081 16.1313 29.416 16.2606 29.2712C16.39 29.1264 16.4615 28.9392 16.4615 28.745C16.4615 28.5508 16.39 28.3634 16.2606 28.2186C16.1313 28.0738 15.9531 27.9818 15.7602 27.96V27.9199Z" fill="#231F20"/>
<path d="M43.1192 7.91001C43.1104 10.7211 42.5179 13.4999 41.3792 16.07C41.3099 16.2067 41.2688 16.356 41.2585 16.5089C41.2482 16.6618 41.2688 16.8153 41.3192 16.9601C42.3679 20.3096 42.2968 23.9096 41.1168 27.2152C39.9367 30.5207 37.712 33.3518 34.7792 35.28C30.959 37.9781 26.2715 39.1581 21.6292 38.5901C19.1394 38.383 16.72 37.66 14.5249 36.4669C12.3298 35.2738 10.4071 33.6367 8.87918 31.66C7.21201 29.6159 6.09148 27.1819 5.62271 24.5862C5.15393 21.9904 5.35229 19.3181 6.19918 16.82C6.2541 16.6545 6.2541 16.4756 6.19918 16.31C4.79386 13.2095 4.19532 9.80392 4.45919 6.41001C4.59517 4.54377 4.99237 2.70588 5.63918 0.950044C5.68185 0.785284 5.75855 0.631259 5.86428 0.497896C5.97002 0.364532 6.10245 0.254742 6.25314 0.17563C6.40383 0.0965183 6.5694 0.049847 6.73922 0.038545C6.90904 0.0272431 7.07938 0.0516336 7.23922 0.110078C11.0831 1.06747 14.6574 2.89049 17.6892 5.44003C17.7721 5.5274 17.879 5.58827 17.9965 5.61496C18.1139 5.64165 18.2367 5.63301 18.3492 5.59006C21.8843 4.55027 25.6441 4.55027 29.1792 5.59006C29.293 5.63021 29.4156 5.63842 29.5338 5.61374C29.6519 5.58906 29.761 5.5324 29.8492 5.45004C32.8714 2.88959 36.4443 1.0621 40.2892 0.110078C40.4522 0.0485896 40.6265 0.02265 40.8003 0.0341505C40.9742 0.0456511 41.1435 0.094302 41.297 0.176729C41.4505 0.259155 41.5845 0.373489 41.6901 0.512056C41.7957 0.650622 41.8704 0.810225 41.9092 0.980073C42.709 3.20304 43.1184 5.54752 43.1192 7.91001ZM7.62918 2.6301C7.58901 2.69313 7.55552 2.7601 7.5292 2.83005C7.47 3.00059 7.4199 3.17419 7.37918 3.35007C6.28418 7.50105 6.72449 11.9077 8.61917 15.76C8.71074 15.9591 8.7582 16.1758 8.7582 16.395C8.7582 16.6142 8.71074 16.8308 8.61917 17.03C8.15686 18.2172 7.88034 19.4686 7.79922 20.7401C7.63918 22.8688 7.98212 25.0052 8.80032 26.9769C9.61852 28.9486 10.889 30.7001 12.5092 32.0901C15.4958 34.7063 19.3039 36.1946 23.273 36.2968C27.2421 36.3991 31.1218 35.1089 34.2392 32.65C36.5692 30.8558 38.2626 28.3618 39.0707 25.5343C39.8788 22.7067 39.7592 19.6945 38.7292 16.94C38.657 16.747 38.6275 16.5407 38.6431 16.3352C38.6586 16.1297 38.7187 15.93 38.8192 15.7501C40.3337 12.6777 40.921 9.23067 40.5092 5.83005C40.3792 4.83005 40.1292 3.74002 39.9292 2.67001L39.4592 2.79001C36.2397 3.79657 33.2732 5.48108 30.7592 7.73007C30.5676 7.93358 30.3209 8.07685 30.0492 8.14255C29.7775 8.20825 29.4926 8.19354 29.2292 8.10007C25.6357 6.86501 21.7327 6.86501 18.1392 8.10007C17.8955 8.19216 17.6306 8.21277 17.3755 8.15964C17.1205 8.1065 16.8858 7.98177 16.6992 7.80002C14.8959 6.14517 12.8357 4.79425 10.5992 3.80002C9.65921 3.39002 8.64918 3.0301 7.62918 2.6301Z" fill="#231F20"/>
<path d="M20.9604 20.3899C20.9662 20.5662 20.9253 20.741 20.8417 20.8964C20.7582 21.0519 20.635 21.1823 20.4847 21.2747C20.3344 21.3672 20.1623 21.4182 19.986 21.4226C19.8096 21.427 19.6351 21.3847 19.4804 21.2999C19.2204 21.1599 19.0104 20.9299 18.7504 20.7799C18.1742 20.4203 17.4988 20.2527 16.8214 20.3012C16.144 20.3497 15.4994 20.6118 14.9804 21.0499C14.7863 21.2223 14.5327 21.3124 14.2733 21.3012C14.0138 21.29 13.769 21.1785 13.5904 20.9899C13.5037 20.8856 13.4391 20.7648 13.4006 20.6347C13.362 20.5047 13.3504 20.3681 13.3663 20.2334C13.3822 20.0987 13.4253 19.9687 13.4931 19.8512C13.5609 19.7337 13.6518 19.6311 13.7604 19.5499C14.7019 18.7567 15.8981 18.3301 17.1291 18.3485C18.36 18.3668 19.543 18.8289 20.4604 19.6499C20.6519 19.8788 20.8195 20.1267 20.9604 20.3899Z" fill="#231F20"/>
<path d="M34.1096 20.42C34.109 20.5957 34.0551 20.7672 33.9552 20.9118C33.8552 21.0564 33.7138 21.1674 33.5496 21.23C33.3855 21.2975 33.2063 21.3201 33.0306 21.2955C32.8549 21.2709 32.6889 21.2 32.5496 21.09C32.1076 20.6925 31.5612 20.4296 30.9748 20.3322C30.3884 20.2348 29.7864 20.3068 29.2396 20.54C28.8984 20.6884 28.5816 20.8874 28.2996 21.1301C28.1991 21.2272 28.0792 21.3021 27.948 21.35C27.8167 21.398 27.6768 21.4179 27.5374 21.4085C27.3979 21.3991 27.262 21.3605 27.1383 21.2953C27.0147 21.2301 26.9061 21.1397 26.8195 21.03C26.6718 20.8175 26.6123 20.5561 26.6533 20.3006C26.6943 20.0451 26.8328 19.8155 27.0396 19.66C27.9319 18.8525 29.0815 18.3874 30.2843 18.3471C31.487 18.3068 32.6652 18.6941 33.6096 19.44C33.7746 19.5419 33.9085 19.6872 33.9967 19.86C34.0848 20.0328 34.1239 20.2265 34.1096 20.42Z" fill="#231F20"/>
<path d="M26.1606 25.7502C26.1235 25.891 26.0663 26.0256 25.9906 26.1501C25.5406 26.8701 25.0806 27.5701 24.6106 28.2701C24.5331 28.4074 24.4204 28.5216 24.2843 28.6011C24.1481 28.6806 23.9933 28.7226 23.8356 28.7226C23.6779 28.7226 23.5231 28.6806 23.3869 28.6011C23.2507 28.5216 23.1381 28.4074 23.0606 28.2701C22.5606 27.6001 22.0606 26.9301 21.5706 26.2701C21.4375 26.1323 21.3509 25.9564 21.3226 25.767C21.2943 25.5776 21.3259 25.3841 21.4129 25.2134C21.4998 25.0428 21.6379 24.9035 21.8077 24.8151C21.9776 24.7267 22.1709 24.6935 22.3606 24.7201H25.2006C25.3345 24.7133 25.4684 24.7358 25.5927 24.7862C25.7171 24.8365 25.8289 24.9135 25.9204 25.0116C26.0118 25.1098 26.0807 25.2267 26.1222 25.3543C26.1637 25.4819 26.1768 25.617 26.1606 25.7502Z" fill="#231F20"/>
</g>
<defs>
<clipPath id="clip0_2067_19">
<rect width="47.39" height="38.72" fill="white"/>
</clipPath>
</defs>
</svg>
