<svg width="37" height="37" viewBox="0 0 37 37" fill="none" xmlns="http://www.w3.org/2000/svg">
<g clip-path="url(#clip0_2067_38)">
<path d="M18.1391 36.2799C13.9356 36.285 9.86055 34.8318 6.60884 32.168C3.35714 29.5041 1.13024 25.7948 0.307937 21.6725C-0.51437 17.5502 0.118811 13.2703 2.09956 9.56274C4.08031 5.85516 7.28589 2.94954 11.1696 1.34143C15.0534 -0.266688 19.3747 -0.477707 23.3967 0.744379C27.4186 1.96647 30.892 4.546 33.2246 8.04296C35.5571 11.5399 36.6044 15.7377 36.1876 19.9205C35.7708 24.1033 33.9159 28.012 30.9392 30.98C27.5417 34.3705 22.9389 36.2762 18.1391 36.2799ZM18.1391 3.2799C14.6659 3.25826 11.2927 4.44261 8.59541 6.63085C5.89809 8.81909 4.04383 11.8756 3.34895 15.2787C2.65408 18.6818 3.1617 22.2206 4.78523 25.2911C6.40877 28.3616 9.04759 30.7735 12.2513 32.1152C15.455 33.457 19.025 33.6454 22.3521 32.6482C25.6792 31.651 28.5571 29.5301 30.4947 26.6475C32.4323 23.7648 33.3096 20.2991 32.9766 16.8418C32.6437 13.3845 31.1212 10.1498 28.6691 7.68994C27.29 6.29875 25.6501 5.19312 23.8432 4.4364C22.0364 3.67968 20.098 3.2867 18.1391 3.2799Z" fill="#231F20"/>
<path d="M15.1808 25.4099C14.9669 25.4098 14.7551 25.3673 14.5577 25.2849C14.3604 25.2025 14.1813 25.0819 14.0308 24.9299L8.8208 19.6599C8.59501 19.4348 8.44116 19.1476 8.37878 18.8349C8.3164 18.5221 8.34822 18.198 8.47033 17.9035C8.59245 17.6089 8.79936 17.3572 9.06469 17.1803C9.33003 17.0034 9.64193 16.9093 9.96081 16.9099C10.3909 16.9097 10.8039 17.0786 11.1107 17.38L15.2307 21.5L25.2307 11.5C25.5344 11.199 25.9452 11.0309 26.3728 11.0327C26.8004 11.0346 27.2097 11.2062 27.5107 11.5099C27.8118 11.8136 27.9799 12.2244 27.978 12.652C27.9762 13.0796 27.8044 13.4889 27.5007 13.7899L16.2808 25.0199C15.9687 25.3086 15.5556 25.4631 15.1307 25.45L15.1808 25.4099Z" fill="#231F20"/>
</g>
<defs>
<clipPath id="clip0_2067_38">
<rect width="36.28" height="36.28" fill="white"/>
</clipPath>
</defs>
</svg>
