<svg width="55" height="40" viewBox="0 0 55 40" fill="none" xmlns="http://www.w3.org/2000/svg">
<g clip-path="url(#clip0_2067_28)">
<path d="M27.531 39.75H27.391C23.481 39.75 20.601 37.65 19.671 34.25C19.5954 33.9728 19.633 33.677 19.7755 33.4276C19.9181 33.1782 20.1538 32.9956 20.431 32.92C20.7081 32.8444 21.004 32.882 21.2534 33.0245C21.5028 33.167 21.6854 33.4029 21.761 33.68C22.431 36.13 24.491 37.5501 27.421 37.5801C30.351 37.6101 32.421 36.2601 33.191 33.8401C33.2652 33.5701 33.4414 33.3396 33.6823 33.197C33.9233 33.0544 34.2102 33.0109 34.4825 33.0758C34.7548 33.1406 34.9913 33.3087 35.1422 33.5445C35.293 33.7804 35.3463 34.0656 35.291 34.3401C35.3011 34.3794 35.3011 34.4207 35.291 34.4601C34.241 37.7801 31.351 39.75 27.531 39.75Z" fill="#231F20"/>
<path d="M54.67 13.2799C53.35 10.9799 43.58 2.14989 41.42 1.09989C40.03 0.439892 38.16 0.57998 36.54 0.68998C35.6996 0.789939 34.8504 0.789939 34.0101 0.68998C29.6884 -0.163262 25.2416 -0.163262 20.92 0.68998C20.0797 0.789939 19.2304 0.789939 18.3901 0.68998C16.7701 0.57998 14.9101 0.439892 13.5101 1.09989C11.3501 2.14989 1.58005 10.9799 0.260052 13.2799C-0.139948 13.9599 -0.0799451 15.12 0.450055 16.95C1.76005 21.36 6.39002 30.51 8.60002 31.7C8.90452 31.8724 9.25019 31.9589 9.60002 31.95C9.95311 31.9433 10.2981 31.8432 10.6 31.66C12.45 30.66 13.6601 26.9699 14.0201 23.66C14.2219 21.8599 14.1882 20.0413 13.92 18.2499C12.92 12.2499 13.5201 8.30992 14.5201 7.12992C14.687 6.92642 14.7669 6.66533 14.7426 6.40324C14.7183 6.14115 14.5916 5.89918 14.3901 5.7299C14.2896 5.64512 14.1734 5.58103 14.0482 5.54118C13.923 5.50132 13.7911 5.48657 13.6601 5.49772C13.5292 5.50886 13.4017 5.54567 13.285 5.60612C13.1683 5.66656 13.0647 5.74936 12.98 5.84989C11.42 7.78989 10.98 12.58 11.98 18.55C12.2133 20.2072 12.2335 21.8876 12.04 23.55C11.6 27.66 10.13 29.95 9.61003 29.95C7.55003 28.95 1.41006 16.0799 2.02006 14.2299C3.12006 12.2299 12.6001 3.74992 14.4001 2.87992C15.6581 2.5225 16.9796 2.4474 18.2701 2.65995C19.3242 2.78997 20.3915 2.76971 21.44 2.59989C25.4342 1.83991 29.5358 1.83991 33.53 2.59989C34.5785 2.76971 35.6459 2.78997 36.7001 2.65995C37.9905 2.4474 39.312 2.5225 40.57 2.87992C42.37 3.74992 51.8501 12.2699 52.9501 14.2299C53.5601 16.0799 47.42 28.91 45.37 29.95C44.84 29.95 43.37 27.66 42.93 23.55C42.7366 21.8876 42.7568 20.2072 42.99 18.55C43.99 12.55 43.56 7.78989 41.99 5.84989C41.9054 5.74936 41.8017 5.66656 41.685 5.60612C41.5683 5.54567 41.4409 5.50886 41.3099 5.49772C41.179 5.48657 41.0471 5.50132 40.9219 5.54118C40.7966 5.58103 40.6805 5.64512 40.5801 5.7299C40.3785 5.89918 40.2518 6.14115 40.2275 6.40324C40.2031 6.66533 40.2831 6.92642 40.4501 7.12992C41.4501 8.30992 42 12.2099 41.05 18.2499C40.7818 20.0413 40.7483 21.8599 40.9501 23.66C41.3101 26.93 42.52 30.66 44.37 31.66C44.6719 31.8432 45.0169 31.9433 45.37 31.95C45.7199 31.9589 46.0655 31.8724 46.37 31.7C48.58 30.51 53.2101 21.36 54.5201 16.95C55.0101 15.13 55.07 13.9699 54.67 13.2799Z" fill="#231F20"/>
<path d="M31.8097 35.5098C30.0774 35.5242 28.3981 34.9135 27.0797 33.7899C26.1421 34.5298 25.0411 35.0348 23.8686 35.2626C22.6962 35.4905 21.4862 35.4347 20.3397 35.0998C14.6197 33.6398 12.3397 22.3698 12.1497 21.0998C12.1138 20.9566 12.1075 20.8076 12.1315 20.6619C12.1554 20.5162 12.2089 20.3769 12.2887 20.2528C12.3686 20.1286 12.4731 20.0221 12.5957 19.9399C12.7184 19.8577 12.8565 19.8014 13.0018 19.7747C13.147 19.748 13.2961 19.7513 13.44 19.7845C13.5839 19.8177 13.7194 19.8801 13.8382 19.9677C13.9571 20.0554 14.0566 20.1665 14.1308 20.2941C14.2051 20.4218 14.2523 20.5633 14.2697 20.7099C14.8497 23.8099 17.1597 32.0598 20.8697 33.0098C21.8066 33.3059 22.8078 33.3337 23.7597 33.0899C24.7099 32.8417 25.57 32.3283 26.2397 31.6098C26.3437 31.4805 26.4754 31.3761 26.6251 31.3044C26.7748 31.2327 26.9387 31.1955 27.1047 31.1955C27.2706 31.1955 27.4346 31.2327 27.5843 31.3044C27.734 31.3761 27.8656 31.4805 27.9696 31.6098C28.6231 32.3389 29.4687 32.8692 30.4097 33.1398C31.3506 33.4104 32.3487 33.4104 33.2897 33.1398C37.0397 32.2898 39.7897 23.8198 40.5897 20.6198C40.6102 20.4711 40.6617 20.3284 40.7409 20.2009C40.8202 20.0734 40.9254 19.964 41.0497 19.8798C41.1757 19.7985 41.3167 19.7434 41.4645 19.7176C41.6122 19.6918 41.7636 19.696 41.9097 19.7298C42.0549 19.7653 42.1913 19.8302 42.3103 19.9206C42.4294 20.011 42.5286 20.125 42.6017 20.2553C42.6749 20.3857 42.7205 20.5297 42.7356 20.6784C42.7507 20.8271 42.7351 20.9774 42.6897 21.1198C42.4197 22.4398 39.4997 33.9599 33.7397 35.3099C33.1056 35.445 32.4578 35.5053 31.8097 35.4898V35.5098Z" fill="#231F20"/>
<path d="M25.8905 15.2799C25.8859 15.4827 25.8303 15.6811 25.7289 15.8569C25.6276 16.0326 25.4836 16.18 25.3103 16.2856C25.137 16.3912 24.94 16.4514 24.7373 16.4609C24.5346 16.4704 24.3329 16.4289 24.1505 16.3399C23.8405 16.1799 23.6005 15.9098 23.2905 15.7398C22.6148 15.3145 21.8213 15.1152 21.0248 15.171C20.2284 15.2267 19.4703 15.5346 18.8605 16.0499C18.7495 16.1549 18.6187 16.2368 18.4758 16.2907C18.3328 16.3447 18.1806 16.3694 18.0279 16.3639C17.8752 16.3583 17.7252 16.3224 17.5865 16.2581C17.4479 16.1939 17.3234 16.1027 17.2204 15.9898C17.1149 15.8672 17.036 15.724 16.9887 15.5693C16.9414 15.4146 16.9266 15.2517 16.9454 15.091C16.9642 14.9303 17.0161 14.7752 17.0979 14.6356C17.1797 14.496 17.2895 14.3749 17.4205 14.2799C18.5284 13.3467 19.9365 12.8458 21.3848 12.8697C22.8332 12.8936 24.224 13.4406 25.3005 14.4099C25.5299 14.6763 25.7279 14.9682 25.8905 15.2799Z" fill="#231F20"/>
<path d="M37.9898 15.3399C37.989 15.5467 37.9241 15.748 37.8041 15.9164C37.6841 16.0847 37.5149 16.2117 37.3198 16.2799C37.1276 16.3727 36.9123 16.407 36.7008 16.3785C36.4892 16.3501 36.2907 16.2601 36.1298 16.1198C35.6099 15.6536 34.968 15.3448 34.2792 15.2297C33.5904 15.1146 32.883 15.1979 32.2398 15.4698C31.8364 15.6513 31.4597 15.8869 31.1198 16.1699C31.0035 16.286 30.8637 16.3759 30.7098 16.4334C30.5559 16.491 30.3914 16.5149 30.2275 16.5035C30.0636 16.4921 29.9039 16.4458 29.7594 16.3675C29.6149 16.2893 29.4889 16.181 29.3898 16.0499C29.2962 15.9294 29.2282 15.7911 29.19 15.6434C29.1518 15.4957 29.1442 15.3418 29.1676 15.191C29.191 15.0403 29.2449 14.8959 29.3261 14.7667C29.4073 14.6375 29.5141 14.5263 29.6398 14.4399C30.6906 13.4918 32.0428 12.9457 33.4573 12.8982C34.8718 12.8506 36.2576 13.3046 37.3698 14.1799C37.5699 14.2974 37.7338 14.4679 37.8432 14.6726C37.9526 14.8773 38.0033 15.1082 37.9898 15.3399Z" fill="#231F20"/>
<path d="M30.9499 25.8099C30.8941 26.0109 30.8169 26.2053 30.7199 26.3899C30.0599 27.3899 29.3999 28.3899 28.7199 29.4399C28.6084 29.6376 28.4465 29.802 28.2506 29.9165C28.0547 30.031 27.8318 30.0913 27.6049 30.0913C27.378 30.0913 27.1552 30.031 26.9593 29.9165C26.7633 29.802 26.6013 29.6376 26.4899 29.4399C25.7699 28.4399 25.0699 27.5099 24.3499 26.5599C24.1632 26.3607 24.0423 26.1089 24.0036 25.8386C23.965 25.5683 24.0104 25.2926 24.1338 25.0491C24.2572 24.8055 24.4526 24.6058 24.6935 24.4772C24.9343 24.3485 25.2088 24.2972 25.4799 24.3299H29.5699C29.7635 24.3161 29.9577 24.3457 30.1383 24.4166C30.3189 24.4876 30.4813 24.598 30.6137 24.74C30.746 24.8819 30.8449 25.0517 30.9031 25.2368C30.9613 25.4219 30.9773 25.6178 30.9499 25.8099Z" fill="#231F20"/>
</g>
<defs>
<clipPath id="clip0_2067_28">
<rect width="54.93" height="39.76" fill="white"/>
</clipPath>
</defs>
</svg>
