<svg width="32" height="32" viewBox="0 0 32 32" fill="none" xmlns="http://www.w3.org/2000/svg">
<rect width="32" height="32" rx="16" fill="white"/>
<path d="M16.7217 8.16249C16.7884 8.16249 16.8268 8.16539 16.8268 8.16539H18.2907L18.2831 9.9091H16.8291C16.0289 9.9091 16.0474 10.6176 16.0474 10.6176V13.382H18.8787L18.4835 15.1233H16.0382V23.8378H14.3582L14.3571 15.1233H12.1253L12.1208 13.382H14.3579V10.6722C14.3582 8.30952 16.2506 8.16247 16.7217 8.16247V8.16249ZM18.2907 8.16538H18.2935H18.2907ZM16.7217 7C16.3187 7 15.5311 7.06919 14.785 7.53534C14.0788 7.97591 13.2371 8.87826 13.2371 10.672V12.2192H12.1211C11.8231 12.2192 11.5375 12.3424 11.3268 12.561C11.2227 12.6694 11.1402 12.7981 11.0841 12.9396C11.028 13.0811 10.9995 13.2327 11 13.3858L11.0045 15.1271C11.0067 15.7674 11.5081 16.2855 12.1256 16.2855H13.2363L13.2374 23.8375C13.2374 24.4795 13.7394 25 14.3585 25H16.0384C16.6575 25 17.1595 24.4795 17.1595 23.8375V16.2855H18.4838C18.9813 16.2855 19.4193 15.9455 19.5594 15.4506L19.9546 13.7092C20.0541 13.3579 19.988 12.978 19.7761 12.6854C19.6718 12.5406 19.5365 12.4232 19.3807 12.3422C19.225 12.2613 19.0531 12.2192 18.8789 12.2192H17.1687V11.0722L18.2834 11.0716C18.9002 11.0716 19.4016 10.5546 19.4044 9.91433L19.412 8.22962C19.4131 8.20823 19.4137 8.18682 19.4137 8.16539C19.4137 7.52342 18.9128 7.00292 18.2937 7.00292H16.8585C16.8263 7.00118 16.7797 7.00002 16.7217 7V7Z" fill="#652280"/>
</svg>
