<svg width="32" height="32" viewBox="0 0 32 32" fill="none" xmlns="http://www.w3.org/2000/svg">
<rect width="32" height="32" rx="16" fill="white"/>
<path d="M21.5 9H11.5C10.837 9 10.2011 9.26339 9.73223 9.73223C9.26339 10.2011 9 10.837 9 11.5V21.5C9 22.163 9.26339 22.7989 9.73223 23.2678C10.2011 23.7366 10.837 24 11.5 24H21.5C22.163 24 22.7989 23.7366 23.2678 23.2678C23.7366 22.7989 24 22.163 24 21.5V11.5C24 10.837 23.7366 10.2011 23.2678 9.73223C22.7989 9.26339 22.163 9 21.5 9V9ZM22.75 21.5C22.75 21.8315 22.6183 22.1495 22.3839 22.3839C22.1495 22.6183 21.8315 22.75 21.5 22.75H11.5C11.1685 22.75 10.8505 22.6183 10.6161 22.3839C10.3817 22.1495 10.25 21.8315 10.25 21.5V11.5C10.25 11.1685 10.3817 10.8505 10.6161 10.6161C10.8505 10.3817 11.1685 10.25 11.5 10.25H21.5C21.8315 10.25 22.1495 10.3817 22.3839 10.6161C22.6183 10.8505 22.75 11.1685 22.75 11.5V21.5Z" fill="#652280"/>
<path d="M16.5 12.75C15.7583 12.75 15.0333 12.9699 14.4166 13.382C13.7999 13.794 13.3193 14.3797 13.0355 15.0649C12.7516 15.7502 12.6774 16.5042 12.8221 17.2316C12.9668 17.959 13.3239 18.6272 13.8484 19.1517C14.3728 19.6761 15.041 20.0333 15.7684 20.1779C16.4958 20.3226 17.2498 20.2484 17.9351 19.9645C18.6203 19.6807 19.206 19.2001 19.618 18.5834C20.0301 17.9667 20.25 17.2417 20.25 16.5C20.25 15.5054 19.8549 14.5516 19.1517 13.8483C18.4484 13.1451 17.4946 12.75 16.5 12.75ZM16.5 19C16.0055 19 15.5222 18.8534 15.1111 18.5787C14.7 18.304 14.3795 17.9135 14.1903 17.4567C14.0011 16.9999 13.9516 16.4972 14.048 16.0123C14.1445 15.5273 14.3826 15.0819 14.7322 14.7322C15.0819 14.3826 15.5273 14.1445 16.0123 14.048C16.4972 13.9516 16.9999 14.0011 17.4567 14.1903C17.9135 14.3795 18.304 14.7 18.5787 15.1111C18.8534 15.5222 19 16.0055 19 16.5C19 17.163 18.7366 17.7989 18.2678 18.2678C17.7989 18.7366 17.163 19 16.5 19Z" fill="#652280"/>
<path d="M20.5625 13.375C21.0803 13.375 21.5 12.9553 21.5 12.4375C21.5 11.9197 21.0803 11.5 20.5625 11.5C20.0447 11.5 19.625 11.9197 19.625 12.4375C19.625 12.9553 20.0447 13.375 20.5625 13.375Z" fill="#652280"/>
</svg>
