<svg width="35" height="39" viewBox="0 0 35 39" fill="none" xmlns="http://www.w3.org/2000/svg">
<path d="M17.0199 2.77003C18.1714 2.77003 19.297 3.11164 20.2543 3.75159C21.2116 4.39155 21.9576 5.30107 22.3979 6.36512C22.8381 7.42917 22.9527 8.59989 22.7273 9.72913C22.5019 10.8584 21.9467 11.8953 21.1317 12.7089C20.3168 13.5224 19.2788 14.0759 18.1492 14.2993C17.0196 14.5228 15.849 14.4062 14.7857 13.9641C13.7224 13.5221 12.8141 12.7746 12.1758 11.8162C11.5375 10.8578 11.1979 9.73147 11.1999 8.57996C11.1999 7.81614 11.3505 7.05981 11.6431 6.35425C11.9357 5.6487 12.3646 5.00778 12.9052 4.46815C13.4457 3.92851 14.0873 3.50075 14.7934 3.20936C15.4994 2.91797 16.2561 2.76871 17.0199 2.77003ZM17.0199 5.81694e-06C15.3201 -0.00197184 13.6579 0.500367 12.2438 1.44349C10.8296 2.38661 9.7271 3.72808 9.07571 5.2981C8.42431 6.86813 8.25337 8.59608 8.5845 10.2633C8.91562 11.9305 9.73388 13.4621 10.9358 14.6641C12.1377 15.866 13.6692 16.6843 15.3364 17.0154C17.0037 17.3465 18.7318 17.1756 20.3018 16.5242C21.8718 15.8728 23.2133 14.7702 24.1564 13.3561C25.0995 11.9419 25.6019 10.2798 25.5999 8.57996C25.5972 6.30522 24.6924 4.12436 23.0839 2.51587C21.4754 0.907386 19.2947 0.00265241 17.0199 5.81694e-06Z" fill="#231F20"/>
<path d="M17.0195 21.23C18.8917 21.23 20.7456 21.5989 22.4751 22.3157C24.2046 23.0324 25.7759 24.0829 27.0992 25.4072C28.4226 26.7315 29.4721 28.3036 30.1876 30.0337C30.9032 31.7637 31.2708 33.6178 31.2695 35.49H2.75952C2.75821 33.617 3.12612 31.7621 3.84229 30.0314C4.55845 28.3007 5.6088 26.7281 6.93323 25.4037C8.25765 24.0793 9.83022 23.0289 11.5609 22.3127C13.2916 21.5966 15.1465 21.2287 17.0195 21.23ZM17.0195 18.47C12.5109 18.47 8.18678 20.2611 4.99866 23.4492C1.81054 26.6373 0.0195312 30.9613 0.0195312 35.47C0.0221662 36.2012 0.31378 36.9017 0.830811 37.4187C1.34784 37.9357 2.04835 38.2273 2.77954 38.23H31.2894C32.0206 38.2273 32.7211 37.9357 33.2382 37.4187C33.7552 36.9017 34.0468 36.2012 34.0494 35.47C34.0494 30.9613 32.2584 26.6373 29.0703 23.4492C25.8822 20.2611 21.5581 18.47 17.0494 18.47H17.0195Z" fill="#231F20"/>
</svg>
