<svg width="32" height="32" viewBox="0 0 32 32" fill="none" xmlns="http://www.w3.org/2000/svg">
<g clip-path="url(#clip0_2067_12)">
<path d="M30.13 31.38C29.9645 31.3809 29.8004 31.3486 29.6476 31.2851C29.4947 31.2215 29.3561 31.128 29.24 31.01L21.61 23.38L20.9399 23.86C18.6902 25.5026 15.9755 26.3854 13.1899 26.38C9.69174 26.38 6.33676 24.9904 3.86316 22.5168C1.38955 20.0431 0 16.6882 0 13.19C0 9.69176 1.38955 6.33691 3.86316 3.86331C6.33676 1.3897 9.69174 2.69042e-05 13.1899 2.69042e-05C15.6243 -0.00489081 18.0123 0.664451 20.0895 1.93386C22.1666 3.20328 23.8516 5.02313 24.9576 7.19168C26.0637 9.36023 26.5475 11.7928 26.3555 14.2195C26.1635 16.6462 25.3033 18.9723 23.87 20.94L23.39 21.6L31.0199 29.24C31.1972 29.4149 31.3183 29.6386 31.3676 29.8827C31.4168 30.1268 31.3921 30.3801 31.2965 30.61C31.2009 30.8399 31.0388 31.0362 30.8309 31.1734C30.6231 31.3105 30.379 31.3825 30.13 31.38ZM13.13 2.52005C10.6616 2.52244 8.27031 3.38053 6.36365 4.94827C4.45699 6.51601 3.15285 8.69639 2.67346 11.1178C2.19407 13.5393 2.56901 16.052 3.7345 18.2279C4.89998 20.4039 6.78387 22.1084 9.06519 23.0512C11.3465 23.9939 13.8842 24.1165 16.2457 23.3981C18.6073 22.6797 20.6468 21.1647 22.0166 19.1112C23.3864 17.0578 24.0019 14.5929 23.7582 12.1365C23.5145 9.68013 22.4266 7.38429 20.6799 5.64004C18.6909 3.6491 15.9942 2.52726 13.1799 2.52005H13.13Z" fill="#231F20"/>
</g>
<defs>
<clipPath id="clip0_2067_12">
<rect width="31.38" height="31.38" fill="white"/>
</clipPath>
</defs>
</svg>
