<svg width="32" height="32" viewBox="0 0 32 32" fill="none" xmlns="http://www.w3.org/2000/svg">
<rect width="32" height="32" rx="16" fill="white"/>
<path d="M24.3649 9.88252C23.8236 9.50351 22.3152 9 15.9947 9C9.22158 9 8.21671 9.57822 7.89422 9.76742C6.17792 10.7705 6.01496 15.2113 6 16.1117C6.0206 17.301 6.21821 21.2577 7.89299 22.2365C8.21485 22.4251 9.21408 23 15.9947 23C22.3192 23 23.8258 22.4989 24.3649 22.1214C25.8277 21.0977 25.9959 17.5722 26 16.0963C25.9963 14.9095 25.8683 10.936 24.3649 9.88254L24.3649 9.88252ZM23.6356 21.1357C23.4181 21.2881 22.1687 21.7852 15.9947 21.7852C10.0257 21.7852 8.77326 21.3346 8.53664 21.1958C7.93416 20.8441 7.29827 18.9773 7.24834 16.1084C7.29766 13.2458 7.94229 11.1562 8.53793 10.8087C8.77518 10.6694 10.0323 10.215 15.9947 10.215C22.1637 10.215 23.4165 10.7155 23.6356 10.8686C24.1704 11.2433 24.7429 13.2161 24.7513 16.1002C24.7429 19.0296 24.1666 20.7639 23.6356 21.1357H23.6356ZM20.0663 15.5223L14.4485 12.1686C14.3538 12.1131 14.2457 12.083 14.1351 12.0814C14.0245 12.0799 13.9155 12.1069 13.8192 12.1598C13.7228 12.2127 13.6426 12.2896 13.5867 12.3825C13.5309 12.4755 13.5015 12.5812 13.5014 12.6888V19.3973C13.5015 19.5584 13.5673 19.7128 13.6844 19.8267C13.8014 19.9406 13.9602 20.0046 14.1257 20.0047C14.2394 20.0047 14.3509 19.9746 14.4482 19.9175L20.066 16.5627C20.2533 16.4525 20.3679 16.2554 20.3679 16.0425C20.3679 15.8296 20.2536 15.6319 20.0663 15.5223H20.0663ZM14.7504 18.3213V13.7642L18.5355 16.0424L14.7504 18.3213Z" fill="#652280"/>
</svg>
